<svg
          width="32" // Doubled the width
          height="32" // Doubled the height
          viewBox="0 0 22 24"
          fill="none"
          xmlns="http://www.w3.org/2000/svg"
        >
          <path
            d="M7.02569 7.40074L4.00342 2.20692H10.3354L11.5615 0H0L5.84201 9.94626L7.02569 7.40074Z"
            fill="#3B3B3B"
          />
          <path
            d="M9.80536 16.5993L12.8276 21.7931H6.49566L5.26953 24H16.8311L10.9903 14.0537L9.80536 16.5993Z"
            fill="#3B3B3B"
          />
          <path
            d="M21.8969 0L20.7132 2.20692H15.7287L2.73605 24H0L14.0538 0H21.8969Z"
            fill="url(#paint0_linear_2_20097)"
          />
          <path
            d="M21.9999 0L14.6189 0.543164L0.103027 24L14.1556 0H21.9999Z"
            fill="url(#paint1_linear_2_20097)"
          />
          <path
            d="M19.5623 0.796103L21.8836 0L20.6987 2.20692H15.7153"
            fill="url(#paint2_linear_2_20097)"
          />
          <defs>
            <linearGradient
              id="paint0_linear_2_20097"
              x1="0"
              y1="11.9998"
              x2="21.8972"
              y2="11.9998"
              gradientUnits="userSpaceOnUse"
            >
              <stop stopColor="#673E98" />
              <stop offset="0.1021" stopColor="#5F5EAA" />
              <stop offset="0.2618" stopColor="#4C86C5" />
              <stop offset="0.3942" stopColor="#2CA3DD" />
              <stop offset="0.4925" stopColor="#00B6EB" />
              <stop offset="0.5456" stopColor="#00BDF1" />
              <stop offset="0.9913" stopColor="#EE4699" />
            </linearGradient>
            <linearGradient
              id="paint1_linear_2_20097"
              x1="0.102421"
              y1="11.9998"
              x2="21.9996"
              y2="11.9998"
              gradientUnits="userSpaceOnUse"
            >
              <stop stopColor="white" />
              <stop offset="0.9964" stopColor="white" stopOpacity="0" />
            </linearGradient>
            <linearGradient
              id="paint2_linear_2_20097"
              x1="15.7148"
              y1="1.10376"
              x2="21.8836"
              y2="1.10376"
              gradientUnits="userSpaceOnUse"
            >
              <stop stopColor="white" />
              <stop offset="0.9964" stopColor="white" stopOpacity="0" />
            </linearGradient>
          </defs>
        </svg>