<svg width="36" height="36" viewBox="0 0 36 36" fill="none" xmlns="http://www.w3.org/2000/svg">
<rect width="36" height="36" rx="8" fill="#342885"/>
<path fill-rule="evenodd" clip-rule="evenodd" d="M17.125 25C21.1981 25 24.5 21.6981 24.5 17.625C24.5 13.5519 21.1981 10.25 17.125 10.25C13.0519 10.25 9.75 13.5519 9.75 17.625C9.75 21.6981 13.0519 25 17.125 25ZM17.125 26.25C21.8885 26.25 25.75 22.3885 25.75 17.625C25.75 12.8615 21.8885 9 17.125 9C12.3615 9 8.5 12.8615 8.5 17.625C8.5 22.3885 12.3615 26.25 17.125 26.25Z" fill="#D0D5DD"/>
<path fill-rule="evenodd" clip-rule="evenodd" d="M13.2531 15.5354C13.443 15.1835 13.6806 14.858 13.9602 14.5685C14.4425 14.069 15.0362 13.6908 15.6928 13.4647C16.3493 13.2387 17.05 13.1712 17.7376 13.2678C18.1362 13.3238 18.5238 13.4341 18.8901 13.5944C18.9883 13.6374 19.085 13.6841 19.1799 13.7342C19.2129 13.7516 19.247 13.766 19.2818 13.7775C19.53 13.8591 19.8116 13.7885 19.9645 13.5702C20.1387 13.3214 20.0794 12.9757 19.8144 12.8272C19.7744 12.8048 19.7341 12.7829 19.6936 12.7615C19.5714 12.697 19.4469 12.6371 19.3204 12.582C18.8658 12.3842 18.385 12.248 17.8907 12.1785C17.0312 12.0577 16.1553 12.1421 15.3346 12.4246C14.514 12.7072 13.7718 13.18 13.1689 13.8044C12.8222 14.1634 12.5271 14.5668 12.2907 15.0026C12.2249 15.1239 12.1637 15.2477 12.1071 15.3737C12.0884 15.4155 12.0701 15.4576 12.0524 15.4999C11.935 15.7801 12.1011 16.089 12.3916 16.1778C12.6464 16.2557 12.9119 16.1379 13.0571 15.9208C13.0775 15.8904 13.0955 15.858 13.1107 15.824C13.1547 15.726 13.2022 15.6298 13.2531 15.5354Z" fill="#D0D5DD"/>
<path fill-rule="evenodd" clip-rule="evenodd" d="M17.1249 20.7499C17.4701 20.7499 17.7499 20.4701 17.7499 20.1249C17.7499 19.7797 17.4701 19.4999 17.1249 19.4999C16.7797 19.4999 16.4999 19.7797 16.4999 20.1249C16.4999 20.4701 16.7797 20.7499 17.1249 20.7499ZM17.1249 21.9999C18.1604 21.9999 18.9999 21.1604 18.9999 20.1249C18.9999 19.0893 18.1604 18.2499 17.1249 18.2499C16.0893 18.2499 15.2499 19.0893 15.2499 20.1249C15.2499 21.1604 16.0893 21.9999 17.1249 21.9999Z" fill="#D0D5DD"/>
<path fill-rule="evenodd" clip-rule="evenodd" d="M22.125 15.7542L18.375 19.5042L17.4911 18.6204L21.2411 14.8704C21.4852 14.6263 21.8809 14.6263 22.125 14.8704C22.3691 15.1144 22.3691 15.5102 22.125 15.7542Z" fill="#D0D5DD"/>
</svg>
